<svg width="21" height="15" viewBox="0 0 21 15" fill="none" xmlns="http://www.w3.org/2000/svg">
<path d="M20.0853 7.10687C19.3012 5.07858 17.9399 3.3245 16.1697 2.06145C14.3995 0.798393 12.2981 0.0817176 10.125 0C7.95195 0.0817176 5.85047 0.798393 4.0803 2.06145C2.31012 3.3245 0.948847 5.07858 0.164718 7.10687C0.111761 7.25334 0.111761 7.41374 0.164718 7.56021C0.948847 9.58851 2.31012 11.3426 4.0803 12.6056C5.85047 13.8687 7.95195 14.5854 10.125 14.6671C12.2981 14.5854 14.3995 13.8687 16.1697 12.6056C17.9399 11.3426 19.3012 9.58851 20.0853 7.56021C20.1382 7.41374 20.1382 7.25334 20.0853 7.10687ZM10.125 13.3337C6.59157 13.3337 2.85813 10.7136 1.50476 7.33354C2.85813 3.95344 6.59157 1.33337 10.125 1.33337C13.6584 1.33337 17.3919 3.95344 18.7452 7.33354C17.3919 10.7136 13.6584 13.3337 10.125 13.3337Z" fill="black"/>
<path d="M10.1249 3.3335C9.33372 3.3335 8.56034 3.5681 7.90253 4.00764C7.24471 4.44718 6.73201 5.07191 6.42925 5.80283C6.12649 6.53376 6.04727 7.33805 6.20162 8.11399C6.35596 8.88994 6.73694 9.60269 7.29636 10.1621C7.85579 10.7215 8.56854 11.1025 9.34449 11.2569C10.1204 11.4112 10.9247 11.332 11.6556 11.0292C12.3866 10.7265 13.0113 10.2138 13.4508 9.55595C13.8904 8.89814 14.125 8.12476 14.125 7.33361C14.125 6.27271 13.7035 5.25527 12.9534 4.5051C12.2032 3.75494 11.1858 3.3335 10.1249 3.3335ZM10.1249 10.0004C9.59744 10.0004 9.08185 9.84395 8.64331 9.55092C8.20477 9.2579 7.86296 8.84141 7.66112 8.35413C7.45928 7.86684 7.40647 7.33065 7.50937 6.81335C7.61227 6.29606 7.86625 5.82089 8.2392 5.44794C8.61215 5.07499 9.08732 4.821 9.60462 4.71811C10.1219 4.61521 10.6581 4.66802 11.1454 4.86986C11.6327 5.0717 12.0492 5.4135 12.3422 5.85205C12.6352 6.29059 12.7916 6.80618 12.7916 7.33361C12.7916 8.04087 12.5107 8.71917 12.0105 9.21928C11.5104 9.71939 10.8321 10.0004 10.1249 10.0004Z" fill="black"/>
</svg>
