<svg width="41" height="41" viewBox="0 0 41 41" fill="none" xmlns="http://www.w3.org/2000/svg">
<path d="M35.5767 32.9651C37.6411 30.4813 39.0769 27.5367 39.7627 24.3806C40.4485 21.2245 40.364 17.9497 39.5164 14.8331C38.6688 11.7165 37.0831 8.84995 34.8934 6.47584C32.7036 4.10174 29.9743 2.28995 26.9363 1.19376C23.8982 0.097565 20.6408 -0.250792 17.4397 0.178158C14.2386 0.607108 11.1878 1.80075 8.54553 3.6581C5.90326 5.51544 3.7472 7.98186 2.25974 10.8487C0.772279 13.7156 -0.00282123 16.8985 7.71599e-06 20.1282C0.00109328 24.8234 1.65564 29.3682 4.67332 32.9651L4.64457 32.9896C4.7452 33.1103 4.8602 33.2138 4.9637 33.3331C5.09307 33.4812 5.23251 33.6206 5.3662 33.7644C5.76869 34.2014 6.1827 34.6211 6.61682 35.015C6.74907 35.1357 6.88563 35.2479 7.01932 35.3629C7.47932 35.7596 7.95226 36.1362 8.44244 36.487C8.5057 36.5301 8.5632 36.5862 8.62645 36.6307V36.6135C11.9932 38.9827 16.0096 40.2543 20.1264 40.2543C24.2433 40.2543 28.2597 38.9827 31.6264 36.6135V36.6307C31.6897 36.5862 31.7458 36.5301 31.8104 36.487C32.2992 36.1348 32.7736 35.7596 33.2336 35.3629C33.3673 35.2479 33.5038 35.1343 33.6361 35.015C34.0702 34.6197 34.4842 34.2014 34.8867 33.7644C35.0204 33.6206 35.1584 33.4812 35.2892 33.3331C35.3913 33.2138 35.5077 33.1103 35.6083 32.9881L35.5767 32.9651ZM20.125 8.62824C21.4044 8.62824 22.6551 9.00763 23.7189 9.71842C24.7826 10.4292 25.6117 11.4395 26.1014 12.6215C26.591 13.8035 26.7191 15.1042 26.4695 16.359C26.2199 17.6138 25.6038 18.7664 24.6991 19.6711C23.7944 20.5758 22.6418 21.1919 21.387 21.4414C20.1322 21.691 18.8315 21.5629 17.6495 21.0733C16.4675 20.5837 15.4572 19.7546 14.7464 18.6908C14.0356 17.6271 13.6563 16.3764 13.6563 15.097C13.6563 13.3814 14.3378 11.736 15.5509 10.5229C16.764 9.30977 18.4094 8.62824 20.125 8.62824ZM8.63507 32.9651C8.66001 31.0776 9.42706 29.2759 10.7703 27.9496C12.1135 26.6233 13.9249 25.8792 15.8125 25.8782H24.4375C26.3252 25.8792 28.1365 26.6233 29.4797 27.9496C30.823 29.2759 31.59 31.0776 31.6149 32.9651C28.4623 35.8061 24.3689 37.3784 20.125 37.3784C15.8811 37.3784 11.7877 35.8061 8.63507 32.9651Z" fill="black"/>
</svg>
