<svg width="59" height="75" viewBox="0 0 59 75" fill="none" xmlns="http://www.w3.org/2000/svg">
<path d="M14.4603 29.4135H30.1731C32.3592 29.4135 34.4558 28.545 36.0016 26.9992C37.5475 25.4533 38.4159 23.3567 38.4159 21.1706C38.4159 18.9844 37.5475 16.8878 36.0016 15.342C34.4558 13.7962 32.3592 12.9277 30.1731 12.9277H14.4603C14.0714 12.9277 13.6984 13.0822 13.4233 13.3573C13.1483 13.6323 12.9938 14.0053 12.9938 14.3942V27.9397C12.9928 28.1329 13.0301 28.3244 13.1034 28.5031C13.1766 28.6819 13.2845 28.8444 13.4208 28.9814C13.5571 29.1183 13.719 29.227 13.8974 29.3011C14.0758 29.3753 14.2671 29.4135 14.4603 29.4135ZM15.9268 15.868H30.1694C31.5777 15.868 32.9283 16.4274 33.924 17.4232C34.9198 18.419 35.4792 19.7696 35.4792 21.1778C35.4792 22.5861 34.9198 23.9366 33.924 24.9324C32.9283 25.9282 31.5777 26.4876 30.1694 26.4876H15.9268V15.868Z" fill="black"/>
<path d="M55.4398 38.5166C53.6753 35.4442 51.2549 32.7987 48.3511 30.7686C50.0068 27.6355 50.8245 24.1275 50.7247 20.5851C50.6249 17.0427 49.611 13.5863 47.7814 10.5513C45.9519 7.51634 43.3689 5.00586 40.283 3.26354C37.1971 1.52123 33.7132 0.606252 30.1694 0.607423H8.29985C6.27777 0.609813 4.33921 1.41414 2.90939 2.84396C1.47957 4.27378 0.675241 6.21235 0.672852 8.23442V66.6045C0.675241 68.6266 1.47957 70.5651 2.90939 71.995C4.33921 73.4248 6.27777 74.2291 8.29985 74.2315H34.7081C38.8903 74.2338 42.9998 73.137 46.6247 71.0511C50.2497 68.9652 53.2629 65.9634 55.3625 62.3464C57.4621 58.7293 58.5744 54.6241 58.588 50.4418C58.6016 46.2596 57.5159 42.1472 55.4398 38.5166ZM34.7081 71.2966H8.29985C7.05445 71.2966 5.86007 70.8019 4.97944 69.9213C4.09882 69.0407 3.60409 67.8463 3.60409 66.6009V8.23442C3.60409 6.98903 4.09882 5.79464 4.97944 4.91402C5.86007 4.03339 7.05445 3.53866 8.29985 3.53866H30.1694C33.3116 3.53729 36.3971 4.37614 39.106 5.9683C41.815 7.56045 44.049 9.848 45.5765 12.5939C47.104 15.3399 47.8695 18.4443 47.7937 21.5856C47.7179 24.7269 46.8035 27.7908 45.1453 30.4598C45.0429 30.6241 44.974 30.807 44.9427 30.998C44.9113 31.189 44.9181 31.3843 44.9626 31.5727C45.0071 31.7611 45.0884 31.9388 45.2019 32.0956C45.3154 32.2523 45.4588 32.3851 45.6239 32.4862C49.5218 34.8648 52.5353 38.4525 54.2051 42.7026C55.8749 46.9527 56.1095 51.6322 54.8731 56.028C53.6367 60.4237 50.9972 64.2948 47.3567 67.0514C43.7162 69.8079 39.2744 71.2987 34.7081 71.2966Z" fill="black"/>
<path d="M12.7301 59.1399V42.8854C12.7324 40.9845 13.4886 39.1622 14.8328 37.818C16.1769 36.4739 17.9992 35.7177 19.9001 35.7153H29.9563C31.0592 35.7185 32.1468 35.9746 33.1353 36.464C34.1237 36.9534 34.9868 37.663 35.658 38.5382L41.8564 46.6637C42.8068 47.9143 43.3213 49.4419 43.3213 51.0127C43.3213 52.5834 42.8068 54.111 41.8564 55.3617L39.8878 57.9443H41.4139C41.7227 57.9563 42.0149 58.0875 42.2291 58.3102C42.4434 58.5329 42.5631 58.83 42.5631 59.139C42.5631 59.4481 42.4434 59.7451 42.2291 59.9679C42.0149 60.1906 41.7227 60.3217 41.4139 60.3337H37.4749C37.2522 60.3335 37.0341 60.2711 36.845 60.1535C36.6559 60.036 36.5034 59.8679 36.4046 59.6684C36.3059 59.4688 36.2648 59.2456 36.2861 59.024C36.3073 58.8024 36.39 58.5911 36.5249 58.4139L39.9564 53.9114C40.59 53.0775 40.9329 52.059 40.9329 51.0118C40.9329 49.9645 40.59 48.946 39.9564 48.1121L33.749 39.9867C33.3024 39.4043 32.7284 38.9319 32.0709 38.6057C31.4135 38.2795 30.6902 38.1081 29.9563 38.1048H19.9001C18.6327 38.1062 17.4175 38.6103 16.5213 39.5066C15.625 40.4028 15.1209 41.6179 15.1195 42.8854V59.1399C15.1209 60.4074 15.625 61.6225 16.5213 62.5188C17.4175 63.415 18.6327 63.9191 19.9001 63.9206H29.9563C30.692 63.9228 31.4184 63.7562 32.0796 63.4337C32.7409 63.1112 33.3194 62.6414 33.7707 62.0603C33.8614 61.9249 33.9789 61.8094 34.1159 61.7211C34.2529 61.6327 34.4065 61.5733 34.5674 61.5465C34.7282 61.5197 34.8928 61.5261 35.051 61.5652C35.2093 61.6044 35.3579 61.6755 35.4877 61.7741C35.6174 61.8728 35.7257 61.997 35.8057 62.1391C35.8857 62.2811 35.9358 62.438 35.9529 62.6002C35.9701 62.7623 35.9539 62.9262 35.9053 63.0818C35.8568 63.2375 35.7769 63.3815 35.6706 63.5052C34.9958 64.3784 34.1299 65.0854 33.1393 65.5719C32.1487 66.0584 31.0599 66.3115 29.9563 66.3118H19.9001C17.9989 66.3094 16.1763 65.553 14.8321 64.2085C13.4879 62.8639 12.732 61.0411 12.7301 59.1399Z" fill="black"/>
<path d="M21.3231 52.2134H25.185V55.9814H21.3231V52.2134Z" stroke="black"/>
<path d="M27.2126 52.2134H31.0746V55.9814H27.2126V52.2134Z" stroke="black"/>
<path d="M21.3237 46.0439H25.1856V49.8119H21.3237V46.0439Z" stroke="black"/>
<path d="M27.2126 46.0439H31.0746V49.8119H27.2126V46.0439Z" stroke="black"/>
</svg>
